<svg width="16" height="16" viewBox="0 0 16 16" fill="none" xmlns="http://www.w3.org/2000/svg">
<path fill-rule="evenodd" clip-rule="evenodd" d="M5.02601 15.01C11.0636 15.01 14.3673 10.0032 14.3673 5.66867C14.3673 5.52781 14.3673 5.38695 14.3609 5.2461C15.0012 4.78511 15.5582 4.20248 16 3.54302C15.411 3.80552 14.7771 3.97839 14.1112 4.06162C14.7899 3.65826 15.3085 3.0116 15.5582 2.2433C14.9244 2.62105 14.2201 2.88996 13.471 3.03721C12.8691 2.39696 12.0176 2 11.0764 2C9.26451 2 7.79192 3.47259 7.79192 5.28451C7.79192 5.54062 7.82393 5.79032 7.87515 6.03361C5.14766 5.89916 2.72749 4.58663 1.10764 2.60184C0.82593 3.08844 0.665866 3.65186 0.665866 4.2537C0.665866 5.39336 1.2485 6.39856 2.12565 6.9876C1.58784 6.96839 1.08203 6.82113 0.640256 6.57783C0.640256 6.59064 0.640256 6.60344 0.640256 6.62265C0.640256 8.21048 1.77351 9.54222 3.27171 9.84314C2.9964 9.91997 2.70828 9.95838 2.40736 9.95838C2.19608 9.95838 1.9912 9.93918 1.79272 9.90076C2.20888 11.2069 3.42537 12.1545 4.85954 12.1801C3.73269 13.0636 2.31773 13.5886 0.781112 13.5886C0.518607 13.5886 0.256102 13.5758 0 13.5438C1.44698 14.4658 3.17567 15.01 5.02601 15.01Z" fill="black"/>
</svg>
